<svg width="588" height="107" viewBox="0 0 588 107" fill="none" xmlns="http://www.w3.org/2000/svg">
<path d="M136.225 78.2724C135.376 78.2724 134.952 77.9457 134.952 77.2926C134.952 77.0412 135.001 76.765 135.101 76.4635C135.201 76.162 135.301 75.8605 135.401 75.559L152.928 28.0741C153.178 27.3204 153.452 26.7928 153.752 26.4913C154.052 26.1898 154.626 26.0391 155.475 26.0391H160.119C160.967 26.0391 161.542 26.1898 161.842 26.4913C162.141 26.7928 162.416 27.3204 162.665 28.0741L180.193 75.559C180.292 75.8605 180.392 76.162 180.492 76.4635C180.592 76.765 180.642 77.0412 180.642 77.2926C180.642 77.9457 180.217 78.2724 179.369 78.2724H175.099C174.25 78.2724 173.676 78.1217 173.376 77.8202C173.077 77.5187 172.802 76.9911 172.553 76.2374L168.433 64.4038H146.936L142.966 76.2374C142.716 76.9911 142.442 77.5187 142.142 77.8202C141.843 78.1217 141.268 78.2724 140.42 78.2724H136.225ZM148.958 58.6001H166.485L157.647 32.9734L148.958 58.6001Z" fill="#161D26"/>
<path d="M192.147 78.2714H187.728C186.729 78.2714 186.23 77.769 186.23 76.7639V41.5648C186.23 40.5598 186.729 40.0573 187.728 40.0573H191.023C192.022 40.0573 192.596 40.5347 192.746 41.4894L193.196 43.9014C195.592 42.2432 197.939 41.0121 200.236 40.2081C202.533 39.3539 204.855 38.9268 207.202 38.9268C211.846 38.9268 214.992 40.7106 216.64 44.2782C221.583 40.7106 226.527 38.9268 231.47 38.9268C234.916 38.9268 237.563 39.9066 239.41 41.8663C241.258 43.826 242.181 46.6148 242.181 50.2327V76.7639C242.181 77.769 241.682 78.2714 240.683 78.2714H236.264C235.265 78.2714 234.766 77.769 234.766 76.7639V52.3431C234.766 49.7804 234.292 47.9214 233.343 46.7655C232.394 45.5596 230.896 44.9566 228.849 44.9566C225.204 44.9566 221.534 46.0872 217.838 48.3484C217.888 48.7 217.913 49.0768 217.913 49.479C217.913 49.8811 217.913 50.2828 217.913 50.6849V76.7639C217.913 77.769 217.414 78.2714 216.415 78.2714H211.996C210.997 78.2714 210.498 77.769 210.498 76.7639V52.3431C210.498 49.7804 210.023 47.9214 209.075 46.7655C208.126 45.5596 206.628 44.9566 204.581 44.9566C200.786 44.9566 197.14 46.0619 193.645 48.273V76.7639C193.645 77.769 193.146 78.2714 192.147 78.2714Z" fill="#161D26"/>
<path d="M261.25 79.2512C257.705 79.2512 254.859 78.2213 252.711 76.1609C250.614 74.1006 249.565 71.3872 249.565 68.0207C249.565 64.3527 250.864 61.438 253.46 59.2774C256.057 57.0664 259.552 55.961 263.946 55.961C266.743 55.961 269.889 56.388 273.384 57.2424V52.2678C273.384 49.5543 272.76 47.6447 271.511 46.5394C270.313 45.4341 268.241 44.8812 265.295 44.8812C263.697 44.8812 261.999 45.0067 260.201 45.2581C258.454 45.5095 256.781 45.8863 255.183 46.3887C254.434 46.5895 253.91 46.7403 253.61 46.8409C253.361 46.891 253.16 46.9163 253.011 46.9163C252.411 46.9163 252.112 46.464 252.112 45.5596V43.5245C252.112 42.8209 252.212 42.3438 252.411 42.0924C252.611 41.7909 253.011 41.5147 253.61 41.2633C255.208 40.5598 257.181 40.0071 259.527 39.6051C261.924 39.1529 264.271 38.9268 266.568 38.9268C271.312 38.9268 274.807 39.9066 277.054 41.8663C279.301 43.826 280.425 46.8662 280.425 50.9864V76.7639C280.425 77.769 279.926 78.2714 278.927 78.2714H275.706C274.757 78.2714 274.208 77.7939 274.058 76.8393L273.684 74.352C271.886 75.9096 269.889 77.1155 267.691 77.9699C265.544 78.8243 263.397 79.2512 261.25 79.2512ZM263.048 73.5983C266.543 73.5983 269.989 72.3169 273.384 69.7543V62.0662C272.136 61.7647 270.813 61.5386 269.414 61.3879C268.066 61.187 266.743 61.0864 265.444 61.0864C259.802 61.0864 256.98 63.2722 256.98 67.6438C256.98 69.5029 257.505 70.9602 258.553 72.0154C259.602 73.0707 261.1 73.5983 263.048 73.5983Z" fill="#161D26"/>
<path d="M316.254 78.2721H288.99C287.991 78.2721 287.491 77.7698 287.491 76.7647V74.202C287.491 73.3982 287.566 72.82 287.716 72.4684C287.916 72.1168 288.266 71.6393 288.765 71.0363L309.288 45.9372H289.739C288.74 45.9372 288.24 45.4348 288.24 44.4297V41.5656C288.24 40.5606 288.74 40.0581 289.739 40.0581H316.029C317.028 40.0581 317.527 40.5606 317.527 41.5656V44.0529C317.527 44.7565 317.452 45.3089 317.303 45.7111C317.153 46.0627 316.828 46.5402 316.329 47.1432L295.431 72.3931H316.254C317.253 72.3931 317.752 72.8706 317.752 73.8251V76.7647C317.752 77.7698 317.253 78.2721 316.254 78.2721Z" fill="#161D26"/>
<path d="M340.284 79.402C334.691 79.402 330.272 77.6431 327.026 74.1259C323.781 70.5581 322.157 65.5586 322.157 59.1267C322.157 52.6947 323.781 47.7201 327.026 44.2029C330.272 40.6855 334.691 38.9268 340.284 38.9268C345.927 38.9268 350.346 40.6855 353.541 44.2029C356.787 47.7201 358.41 52.6947 358.41 59.1267C358.41 65.5586 356.787 70.5581 353.541 74.1259C350.346 77.6431 345.927 79.402 340.284 79.402ZM340.284 73.3721C343.729 73.3721 346.351 72.2163 348.148 69.905C349.946 67.5937 350.845 64.0007 350.845 59.1267C350.845 54.3028 349.946 50.735 348.148 48.4237C346.351 46.1124 343.729 44.9566 340.284 44.9566C336.838 44.9566 334.217 46.1124 332.419 48.4237C330.621 50.735 329.723 54.3028 329.723 59.1267C329.723 64.0007 330.621 67.5937 332.419 69.905C334.217 72.2163 336.838 73.3721 340.284 73.3721Z" fill="#161D26"/>
<path d="M372.348 78.2714H367.929C366.93 78.2714 366.431 77.769 366.431 76.7639V41.5648C366.431 40.5598 366.93 40.0573 367.929 40.0573H371.224C372.223 40.0573 372.797 40.5347 372.947 41.4894L373.396 44.2782C378.14 40.7106 383.134 38.9268 388.377 38.9268C392.022 38.9268 394.794 39.9066 396.691 41.8663C398.589 43.7759 399.537 46.5647 399.537 50.2327V76.7639C399.537 77.769 399.038 78.2714 398.039 78.2714H393.62C392.622 78.2714 392.122 77.769 392.122 76.7639V52.72C392.122 50.0567 391.573 48.097 390.474 46.8409C389.425 45.5848 387.753 44.9566 385.456 44.9566C383.458 44.9566 381.486 45.2833 379.538 45.9364C377.591 46.5895 375.694 47.5445 373.846 48.8006V76.7639C373.846 77.769 373.347 78.2714 372.348 78.2714Z" fill="#161D26"/>
<path d="M434.111 78.2724H430.07C429.07 78.2724 428.572 77.7701 428.572 76.765V27.5465C428.572 26.5415 429.07 26.0391 430.07 26.0391H434.86C436.26 26.0391 437.21 26.4913 437.708 27.3958L462.426 67.7956V27.5465C462.426 26.5415 462.924 26.0391 463.924 26.0391H467.97C468.97 26.0391 469.468 26.5415 469.468 27.5465V76.765C469.468 77.7701 468.97 78.2724 467.97 78.2724H463.101C461.751 78.2724 460.804 77.8202 460.253 76.9157L435.609 36.742V76.765C435.609 77.7701 435.111 78.2724 434.111 78.2724Z" fill="#161D26"/>
<path d="M496.346 79.402C490.753 79.402 486.333 77.6431 483.09 74.1259C479.842 70.5581 478.221 65.5586 478.221 59.1267C478.221 52.6947 479.842 47.7201 483.09 44.2029C486.333 40.6855 490.753 38.9268 496.346 38.9268C501.988 38.9268 506.408 40.6855 509.606 44.2029C512.849 47.7201 514.474 52.6947 514.474 59.1267C514.474 65.5586 512.849 70.5581 509.606 74.1259C506.408 77.6431 501.988 79.402 496.346 79.402ZM496.346 73.3721C499.79 73.3721 502.412 72.2163 504.21 69.905C506.009 67.5937 506.906 64.0007 506.906 59.1267C506.906 54.3028 506.009 50.735 504.21 48.4237C502.412 46.1124 499.79 44.9566 496.346 44.9566C492.901 44.9566 490.279 46.1124 488.481 48.4237C486.682 50.735 485.785 54.3028 485.785 59.1267C485.785 64.0007 486.682 67.5937 488.481 69.905C490.279 72.2163 492.901 73.3721 496.346 73.3721Z" fill="#161D26"/>
<path d="M537.34 78.2721H533.521C532.673 78.2721 532.097 78.1214 531.801 77.8199C531.55 77.5184 531.274 76.9908 530.974 76.2371L517.718 42.7715C517.619 42.47 517.491 42.1685 517.343 41.8671C517.244 41.5155 517.195 41.2389 517.195 41.038C517.195 40.3847 517.57 40.0581 518.319 40.0581H522.735C523.586 40.0581 524.134 40.2089 524.385 40.5103C524.685 40.7616 524.982 41.2892 525.282 42.0932L535.546 71.4886L545.806 42.0932C546.106 41.2892 546.378 40.7616 546.629 40.5103C546.93 40.2089 547.502 40.0581 548.354 40.0581H552.473C553.222 40.0581 553.597 40.3847 553.597 41.038C553.597 41.2389 553.523 41.5155 553.37 41.8671C553.272 42.1685 553.173 42.47 553.07 42.7715L539.888 76.2371C539.588 76.9908 539.291 77.5184 538.991 77.8199C538.74 78.1214 538.192 78.2721 537.34 78.2721Z" fill="#161D26"/>
<path d="M568.256 79.2512C564.708 79.2512 561.865 78.2213 559.716 76.1609C557.617 74.1006 556.572 71.3872 556.572 68.0207C556.572 64.3527 557.868 61.438 560.465 59.2774C563.062 57.0664 566.556 55.961 570.952 55.961C573.746 55.961 576.894 56.388 580.388 57.2424V52.2678C580.388 49.5543 579.767 47.6447 578.516 46.5394C577.318 45.4341 575.244 44.8812 572.301 44.8812C570.701 44.8812 569.005 45.0067 567.206 45.2581C565.457 45.5095 563.787 45.8863 562.19 46.3887C561.441 46.5895 560.914 46.7403 560.613 46.8409C560.366 46.891 560.165 46.9163 560.017 46.9163C559.416 46.9163 559.115 46.464 559.115 45.5596V43.5245C559.115 42.8209 559.218 42.3438 559.416 42.0924C559.618 41.7909 560.017 41.5147 560.613 41.2633C562.214 40.5598 564.186 40.0071 566.532 39.6051C568.931 39.1529 571.277 38.9268 573.573 38.9268C578.318 38.9268 581.812 39.9066 584.059 41.8663C586.307 43.826 587.43 46.8662 587.43 50.9864V76.7639C587.43 77.769 586.932 78.2714 585.932 78.2714H582.71C581.763 78.2714 581.212 77.7939 581.063 76.8393L580.689 74.352C578.89 75.9096 576.894 77.1155 574.697 77.9699C572.548 78.8243 570.404 79.2512 568.256 79.2512ZM570.054 73.5983C573.548 73.5983 576.993 72.3169 580.388 69.7543V62.0662C579.141 61.7647 577.816 61.5386 576.421 61.3879C575.071 61.187 573.746 61.0864 572.45 61.0864C566.807 61.0864 563.984 63.2722 563.984 67.6438C563.984 69.5029 564.511 70.9602 565.56 72.0154C566.606 73.0707 568.104 73.5983 570.054 73.5983Z" fill="#161D26"/>
<mask id="mask0_119_14614" style="mask-type:luminance" maskUnits="userSpaceOnUse" x="0" y="0" width="106" height="107">
<path d="M105.357 0H0V106.019H105.357V0Z" fill="white"/>
</mask>
<g mask="url(#mask0_119_14614)">
<mask id="mask1_119_14614" style="mask-type:alpha" maskUnits="userSpaceOnUse" x="0" y="0" width="106" height="107">
<path d="M59.1891 77.1309L64.2676 82.2409C64.4981 82.4728 64.5722 82.8207 64.4487 83.1271L56.5058 103.393C55.8885 104.975 54.3657 106.019 52.6784 106.019C50.991 106.019 49.4683 104.975 48.851 103.393L37.4181 74.224L18.9231 92.8337C18.6021 93.1567 18.0835 93.1567 17.7625 92.8337L13.1037 88.1461C12.7827 87.823 12.7827 87.3012 13.1037 86.9782L35.9283 64.0118C36.6691 63.2668 37.6486 62.7533 38.6939 62.6953C40.5212 62.5959 42.1345 63.6805 42.7765 65.3122L52.6866 90.5895L57.8475 77.4125C58.0615 76.8575 58.7776 76.7084 59.1973 77.1309H59.1891ZM86.4337 13.1846L67.9387 31.7945L56.5058 2.62492C55.7732 0.76144 53.806 -0.348366 51.773 0.0988684C50.3984 0.405307 49.3037 1.44886 48.7934 2.76571L40.9081 22.883C40.7846 23.1894 40.8587 23.5373 41.0891 23.7692L46.1677 28.8792C46.5875 29.3016 47.2953 29.1526 47.5176 28.5977L52.6784 15.4208L62.5885 40.6979C63.0988 41.998 64.2182 42.9505 65.5764 43.2321C65.8562 43.2901 66.1361 43.315 66.4159 43.315C67.4942 43.315 68.5478 42.8842 69.3297 42.1057L92.2613 19.0318C92.5823 18.7088 92.5823 18.187 92.2613 17.864L87.6025 13.1763C87.2815 12.8533 86.763 12.8533 86.4419 13.1763L86.4337 13.1846ZM28.4216 58.1978L15.3261 53.0049L40.4471 43.0333C42.0686 42.3873 43.1469 40.7641 43.0481 38.9255C42.9905 37.8737 42.4802 36.8881 41.7394 36.1427L18.9231 13.1846C18.6021 12.8616 18.0835 12.8616 17.7625 13.1846L13.1037 17.8723C12.7827 18.1953 12.7827 18.7171 13.1037 19.0401L31.5988 37.65L2.60923 49.1539C1.03711 49.7751 0 51.3074 0 53.0049C0 54.7029 1.03711 56.2352 2.60923 56.8564L22.7505 64.8484C23.055 64.9726 23.4007 64.8981 23.6312 64.6662L28.7097 59.5561C29.1295 59.1337 28.9813 58.4214 28.4299 58.1978H28.4216ZM102.748 49.1539L82.6063 41.1616C82.3018 41.0374 81.9561 41.1119 81.7256 41.3438L76.6471 46.4541C76.2273 46.8761 76.3754 47.5884 76.9269 47.8121L90.0224 53.0049L64.9014 62.9769C63.2799 63.623 62.2017 65.246 62.3004 67.0847C62.358 68.1366 62.8684 69.1223 63.6092 69.8673L86.4337 92.8337C86.7547 93.1567 87.2733 93.1567 87.5943 92.8337L92.253 88.1461C92.574 87.823 92.574 87.3012 92.253 86.9782L73.758 68.3686L102.748 56.8647C104.32 56.2435 105.357 54.7112 105.357 53.0132C105.357 51.3157 104.32 49.7833 102.748 49.1621V49.1539Z" fill="white"/>
</mask>
<g mask="url(#mask1_119_14614)">
<path d="M-9.65907 113.06L114.411 113.06L114.411 -6.98866L-9.65907 -6.98866L-9.65907 113.06Z" fill="url(#paint0_linear_119_14614)"/>
</g>
</g>
<defs>
<linearGradient id="paint0_linear_119_14614" x1="111.528" y1="111.43" x2="-6.91083" y2="-6.29795" gradientUnits="userSpaceOnUse">
<stop stop-color="#FF6200"/>
<stop offset="0.398661" stop-color="#E433FF"/>
<stop offset="0.96" stop-color="#6842FF"/>
</linearGradient>
</defs>
</svg>
